<?xml version="1.0" encoding="UTF-8" standalone="no"?>
<!-- Created with Inkscape (http://www.inkscape.org/) -->

<svg
   width="563.43298mm"
   height="147.69604mm"
   viewBox="0 0 563.43298 147.69604"
   version="1.1"
   id="svg1"
   xml:space="preserve"
   xmlns="http://www.w3.org/2000/svg"
   xmlns:svg="http://www.w3.org/2000/svg"><defs
     id="defs1" /><g
     id="layer1"
     transform="translate(-52.704067,-92.991962)"><path
       id="rect1"
       style="font-variation-settings:'wght' 700;fill:#4c3575;stroke:#4c3575;stroke-width:65.3433;stroke-linecap:round;stroke-linejoin:round;paint-order:stroke fill markers"
       d="M 85.375717,125.66361 H 583.46541 v 82.35274 H 85.375717 Z" /><path
       style="font-size:70.5556px;font-family:'Readex Pro';-inkscape-font-specification:'Readex Pro, @wght=700';font-variation-settings:'wght' 700;letter-spacing:0px;fill:#ffffff;stroke:#000000;stroke-width:0.045;stroke-linecap:round;stroke-linejoin:round;paint-order:stroke fill markers"
       d="m 205.9753,184.97277 q -5.57389,0 -10.30112,-1.83445 -4.65666,-1.905 -8.11389,-5.29167 -3.38667,-3.45722 -5.29167,-8.11389 -1.83445,-4.72723 -1.83445,-10.30112 0,-5.50334 1.90501,-10.16001 1.97555,-4.65667 5.50333,-8.11389 3.52778,-3.45723 8.25501,-5.36223 4.79778,-1.905 10.37167,-1.905 3.52778,0 6.91445,0.91722 3.38667,0.91723 6.27945,2.75167 2.96334,1.76389 5.08,4.30389 l -7.40833,8.39612 q -2.18723,-2.39889 -4.9389,-3.73945 -2.68111,-1.34055 -5.99722,-1.34055 -2.82223,0 -5.36223,0.98778 -2.46945,0.98777 -4.30389,2.89278 -1.83445,1.905 -2.89278,4.51555 -1.05833,2.61056 -1.05833,5.92668 0,3.24555 0.98777,5.92667 1.05834,2.61055 2.96334,4.51555 1.97556,1.83445 4.65667,2.82223 2.75167,0.98778 6.06778,0.98778 2.18722,0 4.16278,-0.56445 2.04611,-0.635 3.81,-1.76389 1.76389,-1.12889 3.03389,-2.54 l 5.85612,9.31334 q -1.69333,1.905 -4.65667,3.45722 -2.89278,1.55223 -6.49112,2.46945 -3.52778,0.84667 -7.19667,0.84667 z m 42.89786,0 q -5.78555,0 -10.37167,-2.46945 -4.58611,-2.54 -7.19667,-6.91445 -2.61056,-4.445 -2.61056,-10.01889 0,-5.71501 2.61056,-10.08945 2.61056,-4.44501 7.19667,-6.91445 4.58612,-2.54 10.37167,-2.54 5.85612,0 10.37168,2.54 4.58611,2.46944 7.19667,6.91445 2.61056,4.37444 2.61056,10.08945 0,5.57389 -2.61056,10.01889 -2.61056,4.37445 -7.19667,6.91445 -4.51556,2.46945 -10.37168,2.46945 z m 0,-9.73668 q 2.54001,0 4.44501,-1.27 1.97555,-1.27 3.10444,-3.45722 1.12889,-2.18722 1.05834,-4.93889 0.0705,-2.89278 -1.05834,-5.08001 -1.12889,-2.25778 -3.10444,-3.45722 -1.905,-1.27 -4.44501,-1.27 -2.46944,0 -4.445,1.27 -1.97555,1.27 -3.10444,3.45722 -1.12889,2.18723 -1.12889,5.08001 0,2.75167 1.12889,4.93889 1.12889,2.18722 3.10444,3.45722 1.97556,1.27 4.445,1.27 z m 27.51664,9.03112 v -37.46502 h 10.79501 l 0.35278,6.77333 -1.55222,0.14112 q 0.77611,-1.83445 2.11666,-3.24556 1.34056,-1.41111 2.96334,-2.32834 1.69333,-0.98778 3.52778,-1.48166 1.83445,-0.56445 3.66889,-0.56445 2.82223,0 5.00945,0.84667 2.25778,0.84667 3.88056,2.75167 1.69333,1.905 2.68111,5.08 l -1.69333,-0.28222 0.49389,-0.98778 q 0.98777,-1.69334 2.39889,-3.03389 1.48166,-1.41111 3.24555,-2.39889 1.76389,-0.98778 3.59834,-1.48167 1.905,-0.49389 3.66889,-0.49389 4.445,0 7.40834,1.76389 2.96333,1.76389 4.445,5.22112 1.48167,3.38666 1.48167,8.39611 v 22.78946 h -11.35945 v -21.94279 q 0,-3.31611 -1.41111,-4.93889 -1.34056,-1.69334 -4.09223,-1.69334 -1.48167,0 -2.75167,0.49389 -1.19944,0.42334 -2.11667,1.34056 -0.84666,0.84667 -1.34055,1.97556 -0.49389,1.12888 -0.49389,2.54 v 22.22501 h -11.35945 v -22.01335 q 0,-3.175 -1.48167,-4.86833 -1.41111,-1.69334 -4.02167,-1.69334 -1.41111,0 -2.68111,0.49389 -1.19945,0.42334 -2.11667,1.34056 -0.84667,0.84667 -1.34056,1.97556 -0.49389,1.12888 -0.49389,2.54 v 22.22501 z m 67.94504,15.52223 v -52.98725 h 10.79501 l 0.49389,8.255 -2.18723,-0.635 q 0.42334,-2.25778 2.32834,-4.09222 1.97556,-1.905 4.86834,-3.03389 2.89278,-1.19945 6.13833,-1.19945 4.79778,0 8.53723,2.46945 3.73945,2.46944 5.85612,6.91445 2.18722,4.37444 2.18722,10.08945 0,5.57389 -2.18722,9.94834 -2.11667,4.37444 -5.92667,6.91445 -3.73945,2.46944 -8.53723,2.46944 -3.24556,0 -6.13834,-1.19944 -2.89278,-1.27 -4.86834,-3.24556 -1.97555,-1.97556 -2.54,-4.30389 l 2.61056,-1.05834 v 24.69446 z m 19.61446,-24.48279 q 2.54,0 4.37445,-1.19944 1.905,-1.19945 2.89278,-3.38667 1.05833,-2.25778 1.05833,-5.15056 0,-2.96334 -1.05833,-5.15056 -0.98778,-2.25778 -2.89278,-3.45723 -1.83445,-1.27 -4.37445,-1.27 -2.61056,0 -4.51556,1.27 -1.905,1.19945 -2.96333,3.38667 -1.05834,2.18723 -1.05834,5.22112 0,2.89278 1.05834,5.15056 1.05833,2.18722 2.96333,3.38667 1.905,1.19944 4.51556,1.19944 z m 26.8112,8.96056 v -37.46502 h 10.79501 l 0.49389,12.20612 -2.11667,-2.39889 q 0.91722,-2.96334 2.82222,-5.36223 1.905,-2.39889 4.51556,-3.81 2.68111,-1.41111 5.57389,-1.41111 1.27001,0 2.32834,0.21166 1.12889,0.14111 1.97556,0.49389 l -3.03389,12.48834 q -0.77612,-0.42333 -2.11667,-0.70555 -1.27,-0.35278 -2.68112,-0.35278 -1.55222,0 -2.89278,0.56444 -1.27,0.49389 -2.25777,1.48167 -0.91723,0.98778 -1.48167,2.32834 -0.49389,1.34055 -0.49389,3.03389 v 18.69723 z m 50.58836,0 v -23.00112 q 0,-2.89278 -1.62278,-4.23334 -1.55222,-1.41111 -4.37445,-1.41111 -2.75166,0 -4.93889,1.05833 -2.11667,0.98778 -4.09222,3.31611 l -6.77334,-6.56167 q 3.38667,-3.45722 7.76112,-5.43278 4.37444,-1.97555 9.525,-1.97555 4.72723,0 8.18445,1.41111 3.45723,1.41111 5.36223,4.30389 1.905,2.89278 1.905,7.33778 v 25.18835 z m -9.73667,0.70556 q -3.52778,0 -6.42056,-1.41111 -2.82223,-1.41112 -4.51556,-3.88056 -1.62278,-2.54 -1.62278,-5.92667 0,-2.89278 1.05833,-5.08001 1.05834,-2.18722 3.10445,-3.59833 2.11667,-1.48167 5.22112,-2.18723 3.175,-0.77611 7.33778,-0.77611 h 11.35945 l -0.635,7.12612 h -10.44223 q -1.48167,0 -2.61056,0.28222 -1.12889,0.21167 -1.905,0.77611 -0.77611,0.49389 -1.19944,1.19945 -0.35278,0.70555 -0.35278,1.69333 0,1.05834 0.56444,1.83445 0.56445,0.77611 1.48167,1.19944 0.98778,0.42334 2.25778,0.42334 1.83445,0 3.45722,-0.56445 1.69334,-0.635 2.96334,-1.76389 1.34056,-1.12889 2.11667,-2.61056 l 1.97556,5.08001 q -1.48167,2.39889 -3.59834,4.23333 -2.04611,1.83445 -4.51556,2.89278 -2.39889,1.05834 -5.08,1.05834 z m 72.17841,-0.70556 v -23.00112 q 0,-2.89278 -1.62278,-4.23334 -1.55222,-1.41111 -4.37444,-1.41111 -2.75167,0 -4.9389,1.05833 -2.11666,0.98778 -4.09222,3.31611 l -6.77334,-6.56167 q 3.38667,-3.45722 7.76112,-5.43278 4.37444,-1.97555 9.525,-1.97555 4.72723,0 8.18445,1.41111 3.45723,1.41111 5.36223,4.30389 1.905,2.89278 1.905,7.33778 v 25.18835 z m -9.73667,0.70556 q -3.52778,0 -6.42056,-1.41111 -2.82222,-1.41112 -4.51556,-3.88056 -1.62278,-2.54 -1.62278,-5.92667 0,-2.89278 1.05834,-5.08001 1.05833,-2.18722 3.10444,-3.59833 2.11667,-1.48167 5.22112,-2.18723 3.175,-0.77611 7.33778,-0.77611 h 11.35945 l -0.635,7.12612 h -10.44223 q -1.48167,0 -2.61056,0.28222 -1.12888,0.21167 -1.905,0.77611 -0.77611,0.49389 -1.19944,1.19945 -0.35278,0.70555 -0.35278,1.69333 0,1.05834 0.56445,1.83445 0.56444,0.77611 1.48166,1.19944 0.98778,0.42334 2.25778,0.42334 1.83445,0 3.45723,-0.56445 1.69333,-0.635 2.96333,-1.76389 1.34056,-1.12889 2.11667,-2.61056 l 1.97556,5.08001 q -1.48167,2.39889 -3.59834,4.23333 -2.04611,1.83445 -4.51556,2.89278 -2.39889,1.05834 -5.08,1.05834 z m 29.70389,-0.70556 v -37.46502 h 10.795 l 0.49389,12.20612 -2.11667,-2.39889 q 0.91723,-2.96334 2.82223,-5.36223 1.905,-2.39889 4.51556,-3.81 2.68111,-1.41111 5.57389,-1.41111 1.27,0 2.32833,0.21166 1.12889,0.14111 1.97556,0.49389 l -3.03389,12.48834 q -0.77611,-0.42333 -2.11667,-0.70555 -1.27,-0.35278 -2.68111,-0.35278 -1.55222,0 -2.89278,0.56444 -1.27,0.49389 -2.25778,1.48167 -0.91722,0.98778 -1.48167,2.32834 -0.49389,1.34055 -0.49389,3.03389 v 18.69723 z m 50.58839,0 v -23.00112 q 0,-2.89278 -1.62278,-4.23334 -1.55223,-1.41111 -4.37445,-1.41111 -2.75167,0 -4.93889,1.05833 -2.11667,0.98778 -4.09223,3.31611 l -6.77334,-6.56167 q 3.38667,-3.45722 7.76112,-5.43278 4.37445,-1.97555 9.52501,-1.97555 4.72722,0 8.18445,1.41111 3.45722,1.41111 5.36222,4.30389 1.905,2.89278 1.905,7.33778 v 25.18835 z m -9.73668,0.70556 q -3.52778,0 -6.42056,-1.41111 -2.82222,-1.41112 -4.51556,-3.88056 -1.62277,-2.54 -1.62277,-5.92667 0,-2.89278 1.05833,-5.08001 1.05833,-2.18722 3.10445,-3.59833 2.11666,-1.48167 5.22111,-2.18723 3.175,-0.77611 7.33778,-0.77611 h 11.35946 l -0.63501,7.12612 h -10.44222 q -1.48167,0 -2.61056,0.28222 -1.12889,0.21167 -1.905,0.77611 -0.77611,0.49389 -1.19945,1.19945 -0.35278,0.70555 -0.35278,1.69333 0,1.05834 0.56445,1.83445 0.56444,0.77611 1.48167,1.19944 0.98777,0.42334 2.25778,0.42334 1.83444,0 3.45722,-0.56445 1.69333,-0.635 2.96334,-1.76389 1.34055,-1.12889 2.11666,-2.61056 l 1.97556,5.08001 q -1.48167,2.39889 -3.59834,4.23333 -2.04611,1.83445 -4.51555,2.89278 -2.39889,1.05834 -5.08001,1.05834 z"
       id="text1"
       aria-label="Compra ara" /><g
       id="g25"
       transform="matrix(0.43780205,0,0,0.43780205,-114.8577,154.31604)"
       style="stroke-width:20.5572;stroke-dasharray:none"><path
         id="path10"
         style="fill:#ffffff;fill-opacity:1;stroke:#ffffff;stroke-width:20.5572;stroke-dasharray:none;stroke-opacity:1"
         d="m 507.98618,-69.072067 c -32.35599,0 -33.51867,0.0074 -34.25643,0.204202 -3.11971,0.83239 -5.5575,3.2021 -6.31729,6.141417 -0.16172,0.625649 -25.43174,160.653508 -25.55363,161.823907 -0.24531,2.355601 1.46849,4.739491 3.88811,5.408411 0.38226,0.10568 4.73561,0.13837 19.66481,0.14637 10.82564,0.005 19.1726,-0.0325 19.1726,-0.0862 0,-0.16753 9.05279,-57.538675 9.17258,-58.130402 0.008,-0.03961 0.0119,-0.08304 0.0201,-0.126299 0.0496,-0.102517 0.0951,-0.190117 0.16289,-0.352928 0.0216,-0.05182 0.0588,-0.118742 0.0838,-0.174693 -0.25963,0.95763 -0.61731,2.974683 -1.75402,10.168807 -7.60235,48.114565 -10.30336,65.400895 -10.30336,65.936125 0,2.01668 1.3829,3.76762 3.41006,4.31776 0.48561,0.13209 3.11004,0.1511 17.26395,0.1322 18.70504,-0.025 17.07868,0.0475 18.87869,-0.83333 1.47918,-0.72386 2.8108,-2.12678 3.50685,-3.69453 0.15118,-0.34051 0.39066,-1.16423 0.53235,-1.83074 0.14168,-0.66651 1.63365,-9.93993 3.31563,-20.606737 1.68198,-10.666809 3.17428,-19.963934 3.31563,-20.661033 0.14134,-0.6971 0.37596,-1.562293 0.52172,-1.922808 0.67902,-1.679392 2.04862,-3.121716 3.77715,-3.976635 1.4029,-0.693863 1.30922,-0.684237 7.49884,-0.774316 6.00508,-0.08739 8.72174,-0.241661 12.46697,-0.709397 10.52093,-1.313947 19.06163,-4.273171 26.42473,-9.154878 2.95784,-1.961032 5.05112,-3.700923 7.69831,-6.399915 2.30906,-2.354246 3.96198,-4.387998 5.79439,-7.130559 5.62037,-8.411969 9.3996,-19.70902 10.80266,-32.292307 0.15299,-1.371909 0.19432,-2.632914 0.19358,-5.891181 -10e-4,-4.5105247 -0.12134,-5.9188781 -0.77313,-9.0828749 -1.70931,-8.2975617 -6.01902,-14.7783531 -12.75144,-19.1725981 -0.67147,-0.438267 -1.09975,-0.687947 -1.52148,-0.932485 0.0231,-0.169805 0.0767,-0.466833 0.0767,-0.539425 0,-0.11482 -0.52111,-0.405959 -1.20869,-0.744808 0.0475,-0.295433 0.0955,-0.58724 0.18414,-1.274789 1.17705,-9.128271 0.63293,-16.02229 -1.75284,-22.200224 -2.01513,-5.218155 -5.7644,-10.476539 -10.06966,-14.124196 -7.16382,-6.069614 -17.80331,-9.754707 -31.80127,-11.015125 -4.89572,-0.44108 -5.0961,-0.443816 -39.76399,-0.443816 z" /><path
         style="fill:#002f86;stroke-width:20.5572;stroke-dasharray:none"
         d="m 445.74704,104.50631 c -2.41962,-0.66892 -4.13352,-3.053 -3.88821,-5.408604 0.12189,-1.1704 25.39155,-161.197961 25.55327,-161.823611 0.75979,-2.93932 3.19804,-5.30983 6.31775,-6.14222 0.73776,-0.19684 1.89974,-0.20376 34.25576,-0.20376 34.66793,0 34.86932,0.002 39.76504,0.44308 13.99798,1.26042 24.63729,4.94567 31.80112,11.01529 4.30526,3.64766 8.05404,8.9062 10.06917,14.12436 2.38577,6.17794 2.93022,13.0725 1.75316,22.20078 -0.12379,0.96004 -0.2397,1.76086 -0.25758,1.7796 -0.0179,0.0188 -0.47134,-0.18632 -1.0077,-0.45569 -5.21365,-2.61846 -12.6391,-4.50375 -20.64831,-5.24254 -4.76198,-0.43926 -5.19264,-0.44516 -32.51024,-0.44516 h -26.45548 l -0.87725,0.25127 c -1.33406,0.38211 -2.3632,1.00076 -3.39543,2.0411 -0.73099,0.73672 -0.97917,1.08125 -1.38378,1.92096 -0.29041,0.6027 -0.56521,1.38191 -0.66866,1.89598 -0.19063,0.94736 -10.18492,64.274901 -10.25505,64.979816 -0.0235,0.23602 -0.0946,0.685372 -0.15798,0.99856 -0.11979,0.591728 -9.17186,57.963459 -9.17186,58.130989 0,0.0537 -8.34776,0.0908 -19.17341,0.0853 -14.92921,-0.008 -19.28207,-0.0398 -19.66433,-0.14548 z"
         id="path2" /><path
         style="fill:#002068;stroke-width:20.5572;stroke-dasharray:none"
         d="m 493.62922,46.511294 c 0.0325,-0.182994 2.35356,-14.905653 5.15814,-32.717022 2.80458,-17.8113698 5.17958,-32.783562 5.27777,-33.271547 0.10517,-0.522601 0.38453,-1.314742 0.67976,-1.927443 0.92385,-1.917318 2.73644,-3.419998 4.85852,-4.02781 l 0.8918,-0.25544 h 26.89451 c 20.64215,0 27.39727,0.03294 29.05715,0.141876 7.98217,0.523638 13.93496,1.555279 19.31749,3.347789 3.05793,1.018373 6.63431,2.597216 6.63431,2.928819 0,0.672905 -1.06645,5.883125 -1.83025,8.941885 -7.60421,30.451698 -27.43226,47.272577 -59.27849,50.288119 -4.23193,0.400726 -5.22672,0.428629 -17.85573,0.500849 -13.86357,0.07929 -12.98019,0.03898 -14.6641,0.669015 -1.39037,0.520199 -3.05893,1.88267 -4.00548,3.270673 -0.25072,0.367658 -0.622,1.067729 -0.82507,1.555711 -0.20307,0.487983 -0.34272,0.73752 -0.31033,0.554526 z"
         id="path3" /><path
         style="fill:#009bdd;stroke-width:20.5572;stroke-dasharray:none"
         d="m 485.37579,126.20404 c -2.02716,-0.55014 -3.40929,-2.30021 -3.40929,-4.31689 0,-0.53523 2.70133,-17.82181 10.30369,-65.936426 1.29698,-8.208501 1.62463,-10.080788 1.89212,-10.81212 0.98259,-2.68645 3.26087,-4.720671 6.03072,-5.384664 0.88728,-0.212702 1.26661,-0.220537 10.79268,-0.222929 14.22063,-0.0036 18.13453,-0.178506 24.60087,-1.099559 24.68659,-3.516312 41.4542,-16.187467 50.1977,-37.93401671 2.18951,-5.44565999 4.20208,-12.71564029 5.10991,-18.45842029 0.0996,-0.63002 0.20255,-1.21105 0.22878,-1.29117 0.0579,-0.17698 0.95421,0.30246 2.72022,1.45513 6.73243,4.39425 11.04264,10.8744803 12.75195,19.1720503 0.65179,3.164 0.77161,4.57265 0.77263,9.0831797 7.4e-4,3.25827 -0.0407,4.51921 -0.19369,5.89112 -1.40307,12.5833 -5.18212,23.880073 -10.80249,32.29205 -1.83241,2.742564 -3.48495,4.776304 -5.79401,7.130552 -2.6472,2.698995 -4.74058,4.439432 -7.69842,6.400466 -7.36311,4.881712 -15.90397,7.840565 -26.42491,9.154513 -3.74523,0.467737 -6.46228,0.622431 -12.46737,0.709823 -6.18962,0.09008 -6.09573,0.08038 -7.49863,0.774244 -1.72854,0.85492 -3.09806,2.296545 -3.77708,3.975939 -0.14576,0.360515 -0.38067,1.225836 -0.52201,1.922936 -0.14135,0.6971 -1.63316,9.994848 -3.31514,20.661668 -1.68198,10.666814 -3.17407,19.939534 -3.31576,20.606044 -0.14169,0.66651 -0.38131,1.49044 -0.53249,1.83095 -0.69605,1.56775 -2.02776,2.97071 -3.50694,3.69457 -1.80001,0.88086 -0.17381,0.80902 -18.87887,0.83405 -14.15393,0.0189 -16.77856,-0.001 -17.26417,-0.13309 z"
         id="path4" /></g></g></svg>
